<?xml version="1.0" encoding="utf-8"?>
<!-- Generator: Adobe Illustrator 22.1.0, SVG Export Plug-In . SVG Version: 6.00 Build 0)  -->
<svg version="1.1" id="Layer_1" xmlns="http://www.w3.org/2000/svg" xmlns:xlink="http://www.w3.org/1999/xlink" x="0px" y="0px"
	 viewBox="0 0 447.5 88.7" style="enable-background:new 0 0 447.5 88.7;" xml:space="preserve">
<style type="text/css">
	.st0{fill:url(#SVGID_1_);}
	.st1{fill:#FFFFFF;}
</style>
<title>toplogo</title>
<linearGradient id="SVGID_1_" gradientUnits="userSpaceOnUse" x1="21.8592" y1="13.1792" x2="80.9806" y2="48.3705" gradientTransform="matrix(1 0 0 -1 -0.46 89.15)">
	<stop  offset="0" style="stop-color:#70FFE8"/>
	<stop  offset="0.62" style="stop-color:#2C96BB"/>
	<stop  offset="0.95" style="stop-color:#0B64A5"/>
</linearGradient>
<path class="st0" d="M100.5,88.1H-0.1l35.2-62.6l7.9,6.2L49.5,0L100.5,88.1z M4.7,85.4h91L50.8,7.7l-5.2,26L76.9,58L33.3,80.4
	l9.2-45.7L36,29.7L4.7,85.4z M45,36.7l-7.8,38.7l34.7-17.8L45,36.7z"/>
<path class="st1" d="M111.3,42.1c0.2-11.6,9.8-20.8,21.4-20.6c5.6,0.1,10.9,2.4,14.8,6.5l-5.2,6c-3.1-2.8-5.7-4.5-10.3-4.5
	c-6.7,0-11.5,5.5-11.5,12.5s4.7,12.5,11.5,12.5c4.5,0,7.3-1.8,10.4-4.6l5.5,6c-4.1,4.4-8.7,6.8-16.3,6.8
	c-11.2,0.1-20.3-8.9-20.3-20.1C111.3,42.5,111.3,42.3,111.3,42.1"/>
<path class="st1" d="M175.8,32.3l5.3,12.9h-10.6L175.8,32.3z M171.8,21.9L154.9,62h8.9l3.6-8.9h16.8l3.6,8.9h9.2l-17.1-40.1H171.8z"
	/>
<path class="st1" d="M205.3,22.2h16.2c9.5,0,15.2,5.6,15.2,13.9c0,9.2-7.1,14-16.1,14H214v11.9h-8.7L205.3,22.2z M221,42.3
	c4.4,0,7-2.6,7-6.1c0-4-2.8-6.1-7.1-6.1h-6.7v12.2H221z"/>
<polygon class="st1" points="246.9,22.2 255.7,22.2 255.7,61.9 246.9,61.9 246.9,42.6 "/>
<polygon class="st1" points="278.1,30.2 266,30.2 266,22.2 299,22.2 299,30.2 286.9,30.2 286.9,62 278.1,62 "/>
<path class="st1" d="M305.5,42.1c0-11.3,8.9-20.6,21.2-20.6s21.1,9.2,21.1,20.6s-8.9,20.6-21.2,20.6S305.5,53.5,305.5,42.1
	 M338.6,42.1c0.2-6.7-5-12.3-11.8-12.5c-0.1,0-0.2,0-0.3,0c-7.1,0-11.9,5.5-11.9,12.5c-0.2,6.7,5,12.3,11.7,12.5c0.1,0,0.2,0,0.3,0
	C333.7,54.6,338.6,49,338.6,42.1"/>
<polygon class="st1" points="358.8,22.2 367.6,22.2 367.6,54 383.6,54 383.6,62 358.8,62 "/>
<polygon class="st1" points="395.4,22.2 404.1,22.2 404.1,45.3 404.1,61.9 395.4,61.9 "/>
<path class="st1" d="M416,56.2l5.2-6.2c3.6,2.9,7.3,4.8,11.9,4.8c3.6,0,5.7-1.4,5.7-3.9c0-2.2-1.4-3.4-8-5.1
	c-8-2-13.2-4.3-13.2-12.3c0-7.2,5.8-12,14-12c5.4-0.1,10.6,1.7,14.8,5l-4.5,6.6c-3.5-2.4-7-3.9-10.3-3.9c-3.4,0-5.1,1.5-5.1,3.6
	c0,2.6,1.7,3.5,8.6,5.2c8.1,2.1,12.6,5,12.6,12c0,7.9-6.1,12.4-14.6,12.4C426.7,62.6,420.7,60.4,416,56.2"/>
</svg>
